<?xml version="1.0" encoding="UTF-8"?>
<svg width="24px" height="24px" viewBox="0 0 24 24" version="1.1" xmlns="http://www.w3.org/2000/svg" xmlns:xlink="http://www.w3.org/1999/xlink">
    <!-- Generator: Sketch 62 (91390) - https://sketch.com -->
    <title>social/insta</title>
    <desc>Created with Sketch.</desc>
    <defs>
        <path d="M12.2964,15.3935 C10.5844,15.3935 9.1974,14.0055 9.1974,12.2935 C9.1974,10.5835 10.5844,9.1955 12.2964,9.1955 C14.0074,9.1955 15.3944,10.5835 15.3944,12.2935 C15.3944,14.0055 14.0074,15.3935 12.2964,15.3935 M12.2964,7.5215 C14.9334,7.5215 17.0684,9.6575 17.0684,12.2935 C17.0684,14.9305 14.9334,17.0675 12.2964,17.0675 C9.6584,17.0675 7.5224,14.9305 7.5224,12.2935 C7.5224,9.6575 9.6584,7.5215 12.2964,7.5215 Z M17.2578,6.2168 C17.8738,6.2168 18.3738,6.7168 18.3738,7.3338 C18.3738,7.9478 17.8738,8.4488 17.2578,8.4488 C16.6418,8.4488 16.1428,7.9478 16.1428,7.3338 C16.1428,6.7168 16.6418,6.2168 17.2578,6.2168 Z M19.8633,16.0512 C19.8213,16.9562 19.6693,17.4492 19.5423,17.7772 C19.3733,18.2112 19.1733,18.5202 18.8463,18.8442 C18.5213,19.1702 18.2133,19.3712 17.7783,19.5412 C17.4493,19.6692 16.9593,19.8192 16.0523,19.8602 C15.0723,19.9062 14.7783,19.9152 12.2963,19.9152 C9.8133,19.9152 9.5193,19.9062 8.5403,19.8602 C7.6333,19.8192 7.1423,19.6692 6.8133,19.5412 C6.3803,19.3712 6.0713,19.1702 5.7453,18.8442 C5.4203,18.5202 5.2183,18.2112 5.0503,17.7772 C4.9243,17.4492 4.7723,16.9562 4.7293,16.0512 C4.6853,15.0692 4.6763,14.7762 4.6763,12.2942 C4.6763,9.8122 4.6853,9.5182 4.7293,8.5392 C4.7723,7.6332 4.9243,7.1402 5.0503,6.8122 C5.2183,6.3792 5.4203,6.0682 5.7453,5.7432 C6.0713,5.4182 6.3803,5.2162 6.8133,5.0482 C7.1423,4.9212 7.6333,4.7692 8.5403,4.7282 C9.5203,4.6832 9.8133,4.6742 12.2963,4.6742 C14.7783,4.6742 15.0723,4.6832 16.0523,4.7282 C16.9593,4.7692 17.4493,4.9212 17.7783,5.0482 C18.2133,5.2162 18.5213,5.4182 18.8463,5.7432 C19.1733,6.0682 19.3733,6.3792 19.5423,6.8122 C19.6693,7.1402 19.8213,7.6332 19.8633,8.5392 C19.9063,9.5182 19.9163,9.8122 19.9163,12.2942 C19.9163,14.7762 19.9063,15.0692 19.8633,16.0512 M21.5343,8.4612 C21.4893,7.4732 21.3353,6.7962 21.1033,6.2042 C20.8663,5.5942 20.5473,5.0752 20.0323,4.5592 C19.5143,4.0432 18.9963,3.7242 18.3853,3.4872 C17.7933,3.2582 17.1173,3.1002 16.1293,3.0552 C15.1373,3.0092 14.8203,3.0002 12.2963,3.0002 C9.7723,3.0002 9.4543,3.0092 8.4633,3.0552 C7.4743,3.1002 6.7993,3.2582 6.2073,3.4872 C5.5953,3.7242 5.0773,4.0432 4.5593,4.5592 C4.0433,5.0752 3.7263,5.5942 3.4893,6.2042 C3.2593,6.7962 3.1013,7.4732 3.0563,8.4612 C3.0113,9.4532 3.0003,9.7692 3.0003,12.2942 C3.0003,14.8192 3.0113,15.1352 3.0563,16.1262 C3.1013,17.1162 3.2593,17.7912 3.4893,18.3832 C3.7263,18.9942 4.0433,19.5132 4.5593,20.0292 C5.0773,20.5472 5.5953,20.8642 6.2073,21.1022 C6.7993,21.3312 7.4743,21.4882 8.4633,21.5342 C9.4543,21.5782 9.7723,21.5902 12.2963,21.5902 C14.8203,21.5902 15.1373,21.5782 16.1293,21.5342 C17.1173,21.4882 17.7933,21.3312 18.3853,21.1022 C18.9963,20.8642 19.5143,20.5472 20.0323,20.0292 C20.5473,19.5132 20.8663,18.9942 21.1033,18.3832 C21.3353,17.7912 21.4893,17.1162 21.5343,16.1262 C21.5813,15.1352 21.5923,14.8192 21.5923,12.2942 C21.5923,9.7692 21.5813,9.4532 21.5343,8.4612" id="path-1"></path>
    </defs>
    <g id="social/insta" stroke="none" stroke-width="1" fill="none" fill-rule="evenodd">
        <mask id="mask-2" fill="white">
            <use xlink:href="#path-1"></use>
        </mask>
        <use id="Mask" fill="#FFFFFF" xlink:href="#path-1"></use>
        <g id="swatch/white" mask="url(#mask-2)" fill="#FFFFFF">
            <rect id="Rectangle" x="0" y="0" width="25" height="24"></rect>
        </g>
        <g id="black" mask="url(#mask-2)" fill="#000000" fill-rule="nonzero">
            <rect id="Rectangle" x="0" y="0" width="24" height="24"></rect>
        </g>
    </g>
</svg>