<?xml version="1.0" encoding="UTF-8"?>
<svg width="24px" height="24px" viewBox="0 0 24 24" version="1.1" xmlns="http://www.w3.org/2000/svg" xmlns:xlink="http://www.w3.org/1999/xlink">
    <!-- Generator: Sketch 62 (91390) - https://sketch.com -->
    <title>social/kakao</title>
    <desc>Created with Sketch.</desc>
    <defs>
        <path d="M9.3506,12.0581 L10.5456,12.0581 L9.9736,10.2611 L9.3506,12.0581 Z M18.231,13.8569 L16.873,12.0049 L16.562,12.2529 L16.562,13.6509 C16.563,14.0659 15.505,14.0659 15.504,13.6519 C15.504,13.3879 15.527,9.8359 15.517,9.4429 C15.511,9.2269 15.789,9.1149 16.061,9.1149 C16.314,9.1149 16.563,9.2119 16.568,9.4149 C16.583,9.9479 16.569,10.9109 16.569,10.9109 C16.569,10.9109 18.102,9.3769 18.32,9.1599 C18.545,8.9369 19.242,9.6379 19.017,9.8619 C18.631,10.2449 17.652,11.3039 17.652,11.3039 L19.094,13.2029 C19.369,13.5649 18.505,14.2189 18.231,13.8569 M14.904,13.9369 C14.419,13.9369 13.328,13.9419 12.835,13.9419 C12.344,13.9419 12.426,13.3679 12.426,13.3679 C12.426,13.3679 12.423,10.4819 12.42,9.5859 C12.42,9.2709 12.699,9.1119 12.98,9.1119 C13.257,9.1119 13.536,9.2689 13.536,9.5829 C13.538,10.2319 13.534,12.9019 13.534,12.9019 C13.534,12.9019 14.417,12.9079 14.9,12.9079 C15.385,12.9079 15.387,13.9369 14.904,13.9369 M11.082,13.6949 C10.832,13.0349 10.896,13.0049 10.896,13.0049 L9.012,13.0049 L8.806,13.7269 C8.585,14.2319 7.638,13.8189 7.857,13.3149 C8.162,12.6149 9.077,9.9789 9.331,9.4199 C9.431,9.1999 9.667,9.1109 9.909,9.1109 C10.201,9.1109 10.503,9.2399 10.587,9.4199 C10.77,9.8109 11.771,12.5609 12.061,13.3249 C12.263,13.8589 11.285,14.2299 11.082,13.6949 M7.148,10.1219 L7.144,13.5859 C7.146,14.0669 6.075,14.0729 6.074,13.5919 C6.079,12.9329 6.073,10.1279 6.073,10.1279 L5.043,10.1279 C4.439,10.1279 4.438,9.1159 5.042,9.1149 C5.042,9.1149 7.453,9.1109 8.174,9.1109 C8.815,9.1109 8.814,10.1219 8.173,10.1219 C7.494,10.1209 7.148,10.1219 7.148,10.1219 M11.883,2.9999 C6.425,2.9999 2,6.4979 2,10.8129 C2,13.6219 3.875,16.0829 6.689,17.4599 C6.482,18.2319 5.94,20.2559 5.832,20.6889 C5.697,21.2259 6.029,21.2189 6.246,21.0749 C6.415,20.9609 8.954,19.2359 10.048,18.4909 C10.643,18.5789 11.256,18.6259 11.883,18.6259 C17.341,18.6259 21.766,15.1279 21.766,10.8129 C21.766,6.4979 17.341,2.9999 11.883,2.9999" id="path-1"></path>
    </defs>
    <g id="social/kakao" stroke="none" stroke-width="1" fill="none" fill-rule="evenodd">
        <mask id="mask-2" fill="white">
            <use xlink:href="#path-1"></use>
        </mask>
        <use id="Mask" fill="#381E1F" xlink:href="#path-1"></use>
        <g id="swatch/white" mask="url(#mask-2)" fill="#FFFFFF">
            <rect id="Rectangle" x="0" y="0" width="25" height="24"></rect>
        </g>
        <g id="black" mask="url(#mask-2)" fill="#000000" fill-rule="nonzero">
            <rect id="Rectangle" x="0" y="0" width="24" height="24"></rect>
        </g>
    </g>
</svg>